<svg width="7" height="12" viewBox="0 0 7 12" fill="none" xmlns="http://www.w3.org/2000/svg">
<path d="M6.94727 5.95215C6.94727 6.09603 6.9196 6.22884 6.86426 6.35059C6.80892 6.47233 6.72314 6.59131 6.60693 6.70752L1.63477 11.6299C1.45215 11.8125 1.23079 11.9038 0.970703 11.9038C0.699544 11.9038 0.469889 11.8125 0.281738 11.6299C0.0935872 11.4417 -0.000488281 11.2148 -0.000488281 10.9492C-0.000488281 10.6836 0.101888 10.4484 0.306641 10.2437L4.66455 5.95215L0.306641 1.66064C0.101888 1.45589 -0.000488281 1.2207 -0.000488281 0.955078C-0.000488281 0.689453 0.0935872 0.465332 0.281738 0.282715C0.469889 0.0945638 0.699544 0.000488281 0.970703 0.000488281C1.23079 0.000488281 1.45215 0.0917969 1.63477 0.274414L6.60693 5.19678C6.83382 5.4126 6.94727 5.66439 6.94727 5.95215Z" fill="#E0E0E0"/>
</svg>
