<svg width="18" height="19" viewBox="0 0 18 19" fill="none" xmlns="http://www.w3.org/2000/svg">
<path d="M6.04823 16.6998C4.86122 16.6998 3.85639 16.2885 3.03376 15.4659C2.21112 14.6432 1.7998 13.6384 1.7998 12.4514C1.7998 11.953 1.88479 11.4687 2.05477 10.9985C2.22475 10.5282 2.46828 10.102 2.78536 9.71983L5.77611 6.123L3.86853 2.2998H14.1311L12.2235 6.123L15.2143 9.71983C15.5313 10.102 15.7749 10.5282 15.9448 10.9985C16.1148 11.4687 16.1998 11.953 16.1998 12.4514C16.1998 13.6384 15.7863 14.6432 14.9593 15.4659C14.1324 16.2885 13.1298 16.6998 11.9514 16.6998H6.04823ZM8.9998 12.668C8.5774 12.668 8.21663 12.5184 7.91748 12.2193C7.61818 11.9201 7.46853 11.5594 7.46853 11.137C7.46853 10.7144 7.61818 10.3536 7.91748 10.0544C8.21663 9.75526 8.5774 9.60569 8.9998 9.60569C9.4222 9.60569 9.78298 9.75526 10.0821 10.0544C10.3814 10.3536 10.5311 10.7144 10.5311 11.137C10.5311 11.5594 10.3814 11.9201 10.0821 12.2193C9.78298 12.5184 9.4222 12.668 8.9998 12.668ZM6.93912 5.58216H11.0685L12.0704 3.57039H5.92922L6.93912 5.58216ZM6.04823 15.4292H11.9514C12.7833 15.4292 13.4876 15.1395 14.0642 14.5601C14.6409 13.9807 14.9292 13.2778 14.9292 12.4514C14.9292 12.1017 14.8692 11.7627 14.7492 11.4343C14.6292 11.1058 14.4579 10.809 14.2353 10.544L11.163 6.85275H6.8578L3.77239 10.5309C3.54976 10.7959 3.3771 11.0948 3.25442 11.4277C3.13173 11.7605 3.07039 12.1017 3.07039 12.4514C3.07039 13.2778 3.36009 13.9807 3.93948 14.5601C4.51886 15.1395 5.22178 15.4292 6.04823 15.4292Z" fill="#4B4B4B"/>
</svg>
