<svg width="25" height="21" viewBox="0 0 25 21" fill="none" xmlns="http://www.w3.org/2000/svg">
<path d="M9.66797 19.707V13.3984C9.66797 13.1771 9.73633 12.998 9.87305 12.8613C10.0098 12.7246 10.1921 12.6562 10.4199 12.6562H14.5898C14.8177 12.6562 14.9967 12.7246 15.127 12.8613C15.2637 12.998 15.332 13.1771 15.332 13.3984V19.707H9.66797ZM1.67969 10.6055C1.41927 10.6055 1.21419 10.5273 1.06445 10.3711C0.914714 10.2083 0.839844 10.026 0.839844 9.82422C0.839844 9.57031 0.94401 9.35872 1.15234 9.18945L11.3281 0.644531C11.6927 0.332031 12.0833 0.175781 12.5 0.175781C12.9167 0.175781 13.3073 0.332031 13.6719 0.644531L23.8477 9.18945C24.056 9.35872 24.1602 9.57031 24.1602 9.82422C24.1602 10.026 24.0853 10.2083 23.9355 10.3711C23.7923 10.5273 23.5872 10.6055 23.3203 10.6055C23.1836 10.6055 23.0566 10.5729 22.9395 10.5078C22.8288 10.4427 22.7246 10.3711 22.627 10.293L12.8418 2.08008C12.7376 1.98893 12.6237 1.94336 12.5 1.94336C12.3763 1.94336 12.2624 1.98893 12.1582 2.08008L2.38281 10.293C2.27865 10.3711 2.16797 10.4427 2.05078 10.5078C1.9401 10.5729 1.81641 10.6055 1.67969 10.6055ZM18.8574 5.41992V3.08594C18.8574 2.87109 18.9225 2.70182 19.0527 2.57812C19.1829 2.44792 19.3522 2.38281 19.5605 2.38281H20.6055C20.8203 2.38281 20.9896 2.44792 21.1133 2.57812C21.2435 2.70182 21.3086 2.87109 21.3086 3.08594V7.49023L18.8574 5.41992ZM5.89844 20.7129C5.20182 20.7129 4.6582 20.5241 4.26758 20.1465C3.88346 19.7754 3.69141 19.2448 3.69141 18.5547V7.73438L5.26367 6.67969V18.1641C5.26367 18.4831 5.34505 18.724 5.50781 18.8867C5.67708 19.056 5.91797 19.1406 6.23047 19.1406H18.7793C19.0918 19.1406 19.3294 19.056 19.4922 18.8867C19.6549 18.724 19.7363 18.4831 19.7363 18.1641V6.66992L21.3086 7.73438V18.5547C21.3086 19.2383 21.1165 19.7689 20.7324 20.1465C20.3483 20.5241 19.8079 20.7129 19.1113 20.7129H5.89844Z" fill="#4B4B4B"/>
</svg>
