<svg width="24" height="24" viewBox="0 0 24 24" fill="none" xmlns="http://www.w3.org/2000/svg">
<path d="M19.24 5.58055H18.84L15.46 2.20055C15.19 1.93055 14.75 1.93055 14.47 2.20055C14.2 2.47055 14.2 2.91055 14.47 3.19055L16.86 5.58055H7.14L9.53 3.19055C9.8 2.92055 9.8 2.48055 9.53 2.20055C9.26 1.93055 8.82 1.93055 8.54 2.20055L5.17 5.58055H4.77C3.87 5.58055 2 5.58055 2 8.14055C2 9.11055 2.2 9.75055 2.62 10.1705C2.86 10.4205 3.15 10.5505 3.46 10.6205C3.75 10.6905 4.06 10.7005 4.36 10.7005H19.64C19.95 10.7005 20.24 10.6805 20.52 10.6205C21.36 10.4205 22 9.82055 22 8.14055C22 5.58055 20.13 5.58055 19.24 5.58055Z" fill="white"/>
<path d="M19.05 12H4.87003C4.25003 12 3.78003 12.55 3.88003 13.16L4.72003 18.3C5.00003 20.02 5.75003 22 9.08003 22H14.69C18.06 22 18.66 20.31 19.02 18.42L20.03 13.19C20.15 12.57 19.68 12 19.05 12ZM12 19.5C9.66003 19.5 7.75003 17.59 7.75003 15.25C7.75003 14.84 8.09003 14.5 8.50003 14.5C8.91003 14.5 9.25003 14.84 9.25003 15.25C9.25003 16.77 10.48 18 12 18C13.52 18 14.75 16.77 14.75 15.25C14.75 14.84 15.09 14.5 15.5 14.5C15.91 14.5 16.25 14.84 16.25 15.25C16.25 17.59 14.34 19.5 12 19.5Z" fill="white"/>
</svg>
