<svg width="18" height="19" viewBox="0 0 18 19" fill="none" xmlns="http://www.w3.org/2000/svg">
<path d="M15 5.78V13.22C15 14.36 14.895 15.17 14.625 15.7475C14.625 15.755 14.6175 15.77 14.61 15.7775C14.445 15.9875 14.2275 16.0925 13.9725 16.0925C13.575 16.0925 13.095 15.83 12.5775 15.275C11.9625 14.615 11.0175 14.6675 10.4775 15.3875L9.72002 16.3925C9.42002 16.7975 9.0225 17 8.625 17C8.2275 17 7.82998 16.7975 7.52998 16.3925L6.76501 15.38C6.23251 14.6675 5.29499 14.615 4.67999 15.2675L4.67249 15.275C3.82499 16.1825 3.07501 16.3175 2.64001 15.7775C2.63251 15.77 2.625 15.755 2.625 15.7475C2.355 15.17 2.25 14.36 2.25 13.22V5.78C2.25 4.64 2.355 3.83 2.625 3.2525C2.625 3.245 2.62501 3.2375 2.64001 3.23C3.06751 2.6825 3.82499 2.8175 4.67249 3.725L4.67999 3.7325C5.29499 4.385 6.23251 4.3325 6.76501 3.62L7.52998 2.6075C7.82998 2.2025 8.2275 2 8.625 2C9.0225 2 9.42002 2.2025 9.72002 2.6075L10.4775 3.6125C11.0175 4.3325 11.9625 4.385 12.5775 3.725C13.095 3.17 13.575 2.9075 13.9725 2.9075C14.2275 2.9075 14.445 3.02 14.61 3.23C14.625 3.2375 14.625 3.245 14.625 3.2525C14.895 3.83 15 4.64 15 5.78Z" stroke="#4B4B4B" stroke-width="1.5" stroke-linecap="round" stroke-linejoin="round"/>
<path d="M6 8.1875H12" stroke="#4B4B4B" stroke-width="1.5" stroke-linecap="round" stroke-linejoin="round"/>
<path d="M6 10.8125H10.5" stroke="#4B4B4B" stroke-width="1.5" stroke-linecap="round" stroke-linejoin="round"/>
</svg>
