<svg width="30" height="26" viewBox="0 0 30 26" fill="none" xmlns="http://www.w3.org/2000/svg">
<path d="M6.72559 25.1094C5.58008 25.1094 4.71126 24.8133 4.11914 24.2212C3.52702 23.6346 3.23096 22.7741 3.23096 21.6396V10.583C3.23096 9.44857 3.52702 8.58805 4.11914 8.00146C4.71126 7.40934 5.58008 7.11328 6.72559 7.11328H22.4224C23.5679 7.11328 24.4367 7.40934 25.0288 8.00146C25.6265 8.58805 25.9253 9.44857 25.9253 10.583V21.6396C25.9253 22.7686 25.6265 23.6291 25.0288 24.2212C24.4367 24.8133 23.5679 25.1094 22.4224 25.1094H6.72559ZM6.8916 23.0176H22.2563C22.7599 23.0176 23.1473 22.8848 23.4185 22.6191C23.6896 22.359 23.8252 21.9634 23.8252 21.4321V10.7905C23.8252 10.2593 23.6896 9.86361 23.4185 9.60352C23.1473 9.33789 22.7599 9.20508 22.2563 9.20508H6.8916C6.38249 9.20508 5.99235 9.33789 5.72119 9.60352C5.45557 9.86361 5.32275 10.2593 5.32275 10.7905V21.4321C5.32275 21.9634 5.45557 22.359 5.72119 22.6191C5.99235 22.8848 6.38249 23.0176 6.8916 23.0176ZM5.63818 5.32031C5.70459 4.84993 5.86784 4.48193 6.12793 4.21631C6.39355 3.95068 6.79199 3.81787 7.32324 3.81787H21.8413C22.3726 3.81787 22.7682 3.95068 23.0283 4.21631C23.2939 4.48193 23.4572 4.84993 23.5181 5.32031H5.63818ZM7.77979 2.25732C7.81299 1.81462 7.9624 1.47705 8.22803 1.24463C8.49365 1.00667 8.86442 0.887695 9.34033 0.887695H19.8242C20.3001 0.887695 20.6681 1.00667 20.9282 1.24463C21.1938 1.47705 21.3433 1.81462 21.3765 2.25732H7.77979ZM13.4409 21.0835C13.2528 21.0835 13.0812 21.042 12.9263 20.959C12.7769 20.876 12.6357 20.7487 12.5029 20.5771L9.91309 17.4561C9.73047 17.2292 9.63916 16.9995 9.63916 16.7671C9.63916 16.5125 9.7277 16.2995 9.90479 16.1279C10.0819 15.9508 10.2949 15.8623 10.5439 15.8623C10.6934 15.8623 10.8317 15.8927 10.959 15.9536C11.0863 16.0145 11.208 16.1196 11.3242 16.269L13.4077 18.8506L17.7075 11.9858C17.9233 11.6427 18.1917 11.4712 18.5127 11.4712C18.7562 11.4712 18.972 11.5514 19.1602 11.7119C19.3538 11.8724 19.4507 12.0799 19.4507 12.3345C19.4507 12.4451 19.4258 12.5586 19.376 12.6748C19.3317 12.791 19.2764 12.9017 19.21 13.0068L14.3457 20.5688C14.1188 20.9119 13.8172 21.0835 13.4409 21.0835Z" fill="#06B2B6"/>
</svg>
