<svg width="24" height="25" viewBox="0 0 24 25" fill="none" xmlns="http://www.w3.org/2000/svg">
<path d="M7.09625 14.6085H8.44225C8.56275 14.6085 8.6775 14.5867 8.7865 14.543C8.8955 14.4995 8.99675 14.4309 9.09025 14.3373L13.9538 9.47378C14.0718 9.34945 14.1603 9.21228 14.2193 9.06228C14.2783 8.91228 14.3077 8.76486 14.3077 8.62003C14.3077 8.4752 14.2757 8.33286 14.2115 8.19303C14.1473 8.05336 14.0614 7.92136 13.9538 7.79703L13.0443 6.84703C12.9263 6.72903 12.7933 6.64053 12.6453 6.58153C12.4971 6.52253 12.3455 6.49303 12.1905 6.49303C12.0455 6.49303 11.898 6.52253 11.748 6.58153C11.598 6.64053 11.4608 6.72903 11.3365 6.84703L6.4635 11.7105C6.36983 11.804 6.30125 11.9053 6.25775 12.0143C6.21408 12.1233 6.19225 12.238 6.19225 12.3585V13.7045C6.19225 13.9622 6.2785 14.1773 6.451 14.3498C6.6235 14.5223 6.83858 14.6085 7.09625 14.6085ZM7.3845 13.4163V12.4663L10.3713 9.47953L10.852 9.94878L11.3115 10.4393L8.3345 13.4163H7.3845ZM10.852 9.94878L11.3115 10.4393L10.3713 9.47953L10.852 9.94878ZM11.4923 14.6085H17.0577C17.2706 14.6085 17.4488 14.5367 17.5922 14.393C17.7359 14.2495 17.8077 14.0714 17.8077 13.8585C17.8077 13.6457 17.7359 13.4674 17.5922 13.3238C17.4488 13.1803 17.2706 13.1085 17.0577 13.1085H12.9923L11.4923 14.6085ZM6.0385 18.3008L4.0365 20.3025C3.752 20.5872 3.42475 20.6517 3.05475 20.496C2.68492 20.3402 2.5 20.0597 2.5 19.6545V5.10853C2.5 4.60336 2.675 4.17578 3.025 3.82578C3.375 3.47578 3.80258 3.30078 4.30775 3.30078H19.6923C20.1974 3.30078 20.625 3.47578 20.975 3.82578C21.325 4.17578 21.5 4.60336 21.5 5.10853V16.493C21.5 16.9982 21.325 17.4258 20.975 17.7758C20.625 18.1258 20.1974 18.3008 19.6923 18.3008H6.0385ZM5.4 16.8008H19.6923C19.7693 16.8008 19.8398 16.7687 19.9038 16.7045C19.9679 16.6405 20 16.57 20 16.493V5.10853C20 5.03153 19.9679 4.96103 19.9038 4.89703C19.8398 4.83286 19.7693 4.80078 19.6923 4.80078H4.30775C4.23075 4.80078 4.16025 4.83286 4.09625 4.89703C4.03208 4.96103 4 5.03153 4 5.10853V18.1855L5.4 16.8008Z" fill="#06B2B6"/>
</svg>
