<svg width="24" height="25" viewBox="0 0 24 25" fill="none" xmlns="http://www.w3.org/2000/svg">
<path d="M7 14.2149C6.55583 14.2149 6.17558 14.0567 5.85925 13.7404C5.54292 13.424 5.38475 13.0438 5.38475 12.5996C5.38475 12.1554 5.54292 11.7752 5.85925 11.4589C6.17558 11.1425 6.55583 10.9844 7 10.9844C7.44417 10.9844 7.82442 11.1425 8.14075 11.4589C8.45708 11.7752 8.61525 12.1554 8.61525 12.5996C8.61525 13.0438 8.45708 13.424 8.14075 13.7404C7.82442 14.0567 7.44417 14.2149 7 14.2149ZM7 18.0996C5.47217 18.0996 4.17358 17.5651 3.10425 16.4961C2.03475 15.4271 1.5 14.129 1.5 12.6019C1.5 11.0747 2.03475 9.77586 3.10425 8.70536C4.17358 7.63486 5.47217 7.09961 7 7.09961C8.07183 7.09961 9.04108 7.37619 9.90775 7.92936C10.7744 8.48269 11.4359 9.20611 11.8923 10.0996H20.5173C20.6351 10.0996 20.7492 10.1214 20.8595 10.1651C20.9698 10.2086 21.0718 10.2772 21.1653 10.3709L22.7615 11.9669C22.8552 12.0605 22.9212 12.1597 22.9595 12.2644C22.998 12.369 23.0173 12.4812 23.0173 12.6009C23.0173 12.7205 22.998 12.8323 22.9595 12.9361C22.9212 13.0399 22.8552 13.1387 22.7615 13.2324L20.1155 15.8689C20.0405 15.9464 19.9506 16.0084 19.8458 16.0549C19.7409 16.1014 19.6366 16.1297 19.5328 16.1399C19.4289 16.1502 19.3251 16.1403 19.2213 16.1101C19.1174 16.0799 19.0187 16.0296 18.925 15.9591L17.6923 15.0324L16.2962 16.0689C16.2192 16.129 16.1372 16.1726 16.05 16.1996C15.9628 16.2264 15.8724 16.2399 15.7788 16.2399C15.6853 16.2399 15.5923 16.2249 15.5 16.1949C15.4077 16.1647 15.3231 16.1227 15.2462 16.0689L13.8365 15.0996H11.8923C11.4359 15.9868 10.7744 16.7085 9.90775 17.2649C9.04108 17.8214 8.07183 18.0996 7 18.0996ZM7 16.5996C7.959 16.5996 8.78942 16.3099 9.49125 15.7304C10.1932 15.1509 10.6513 14.4406 10.8655 13.5996H14.3077L15.748 14.5959C15.7417 14.5959 15.7401 14.5984 15.7432 14.6034C15.7464 14.6085 15.748 14.606 15.748 14.5959L17.702 13.1669L19.4 14.4651L21.2655 12.5996L20.2655 11.5996H10.8655C10.6513 10.7586 10.1932 10.0484 9.49125 9.46886C8.78942 8.88936 7.959 8.59961 7 8.59961C5.9 8.59961 4.95833 8.99128 4.175 9.77461C3.39167 10.5579 3 11.4996 3 12.5996C3 13.6996 3.39167 14.6413 4.175 15.4246C4.95833 16.2079 5.9 16.5996 7 16.5996Z" fill="#06B2B6"/>
</svg>
