<svg width="76" height="46" viewBox="0 0 76 46" fill="none" xmlns="http://www.w3.org/2000/svg">
<path d="M0 24.4134H0.819556L2.04821 22.6247C2.04821 22.6247 2.05094 22.6221 2.0523 22.6208C2.15559 22.1001 2.06997 21.8039 1.97618 21.6476C1.93541 21.5973 1.8892 21.5457 1.83483 21.4926C1.91367 21.1786 2.31325 20.6771 2.86098 20.1063C4.13586 18.4712 6.40688 15.8305 8.56249 14.7241H9.58464C9.58464 14.7241 18.9504 3.8973 34.4186 1.48211C34.4186 1.48211 35.2587 0.672062 37.0174 0.427419V0.409763C37.2797 0.381222 37.5284 0.366271 37.7662 0.360828V0.359467C37.8043 0.359467 37.8451 0.359467 37.8831 0.360828C37.9225 0.360828 37.962 0.359467 38 0.359467C38.3072 0.358106 38.6333 0.371697 38.9827 0.409763V0.427419C40.7414 0.673423 41.5814 1.48211 41.5814 1.48211C57.0497 3.8973 66.4154 14.7241 66.4154 14.7241H67.2036H67.4374C70.6694 16.3849 74.1652 21.4912 74.1652 21.4912C73.4285 22.2198 73.9518 22.6234 73.9518 22.6234L75.1805 24.4121H76V24.8864H0.00272161V24.4121L0 24.4134ZM0 26.4535H75.9972V26.9264H0V26.4535ZM0 25.4341H75.9972V25.9085H0V25.4341ZM2.01561 24.4147H3.6615L4.75833 22.3991C4.75833 22.3991 5.16194 21.3173 4.47291 20.7383C4.47291 20.7383 7.15853 17.9712 7.23066 16.26C7.23066 16.26 7.16951 16.3076 7.06066 16.3959C7.16804 16.3089 7.23066 16.26 7.23066 16.26C5.4203 17.7945 4.68493 19.4145 4.68493 19.4145L2.01561 24.4147ZM4.85898 24.4147H9.10348L11.4847 19.9337L11.2943 19.3806C11.2943 19.3806 13.957 16.1608 11.8176 14.9021C8.85069 16.0684 7.48476 19.3207 7.48476 19.3207L4.85898 24.416V24.4147ZM11.0824 24.4147H20.7527L21.9296 20.9394L21.6755 19.8658C21.6755 19.8658 24.1477 14.6331 19.7102 13.8951C19.7102 13.8951 19.2563 14.0269 18.5686 14.3001C15.838 15.5287 14.2424 18.1914 14.2424 18.1914L11.0824 24.4147ZM23.4219 24.4147H36.5729V17.4302C36.5729 17.4302 35.8118 14.031 30.9937 13.225C27.252 13.4344 25.2662 17.5797 25.2662 17.5797L23.4206 24.4147H23.4219ZM39.4258 24.4147H52.3444L50.4986 17.5797C50.4986 17.5797 48.5686 13.5539 44.9301 13.2386C40.1814 14.0664 39.4271 17.4302 39.4271 17.4302V24.4147H39.4258ZM55.246 24.4147H64.6824L61.5225 18.1914C61.5225 18.1914 59.9269 15.5287 57.1964 14.3001C56.688 14.0975 56.3062 13.9739 56.1431 13.9223C51.9053 14.75 54.3232 19.8658 54.3232 19.8658L54.069 20.9394L55.246 24.4147ZM66.8938 24.4147H70.9047L68.2787 19.3194C68.2787 19.3194 66.9549 16.1743 64.0885 14.9606C62.1247 16.2572 64.7029 19.3792 64.7029 19.3792L64.5126 19.9324L66.8938 24.4134V24.4147ZM72.3371 24.4147H73.7493L71.0799 19.4145C71.0799 19.4145 70.414 17.9507 68.7925 16.4869C69.0671 18.2035 71.5257 20.7383 71.5257 20.7383C70.8366 21.3173 71.2402 22.3991 71.2402 22.3991L72.3371 24.4147Z" fill="#06B2B6"/>
<mask id="mask0_997_69766" style="mask-type:luminance" maskUnits="userSpaceOnUse" x="0" y="0" width="76" height="27">
<path d="M0 24.4134H0.819556L2.04821 22.6247C2.04821 22.6247 2.05094 22.6221 2.0523 22.6208C2.15559 22.1001 2.06997 21.8039 1.97618 21.6476C1.93541 21.5973 1.8892 21.5457 1.83483 21.4926C1.91367 21.1786 2.31325 20.6771 2.86098 20.1063C4.13586 18.4712 6.40688 15.8305 8.56249 14.7241H9.58464C9.58464 14.7241 18.9504 3.8973 34.4186 1.48211C34.4186 1.48211 35.2587 0.672062 37.0174 0.427419V0.409763C37.2797 0.381222 37.5284 0.366271 37.7662 0.360828V0.359467C37.8043 0.359467 37.8451 0.359467 37.8831 0.360828C37.9225 0.360828 37.962 0.359467 38 0.359467C38.3072 0.358106 38.6333 0.371697 38.9827 0.409763V0.427419C40.7414 0.673423 41.5814 1.48211 41.5814 1.48211C57.0497 3.8973 66.4154 14.7241 66.4154 14.7241H67.2036H67.4374C70.6694 16.3849 74.1652 21.4912 74.1652 21.4912C73.4285 22.2198 73.9518 22.6234 73.9518 22.6234L75.1805 24.4121H76V24.8864H0.00272161V24.4121L0 24.4134ZM0 26.4535H75.9972V26.9264H0V26.4535ZM0 25.4341H75.9972V25.9085H0V25.4341ZM2.01561 24.4147H3.6615L4.75833 22.3991C4.75833 22.3991 5.16194 21.3173 4.47291 20.7383C4.47291 20.7383 7.15853 17.9712 7.23066 16.26C7.23066 16.26 7.16951 16.3076 7.06066 16.3959C7.16804 16.3089 7.23066 16.26 7.23066 16.26C5.4203 17.7945 4.68493 19.4145 4.68493 19.4145L2.01561 24.4147ZM4.85898 24.4147H9.10348L11.4847 19.9337L11.2943 19.3806C11.2943 19.3806 13.957 16.1608 11.8176 14.9021C8.85069 16.0684 7.48476 19.3207 7.48476 19.3207L4.85898 24.416V24.4147ZM11.0824 24.4147H20.7527L21.9296 20.9394L21.6755 19.8658C21.6755 19.8658 24.1477 14.6331 19.7102 13.8951C19.7102 13.8951 19.2563 14.0269 18.5686 14.3001C15.838 15.5287 14.2424 18.1914 14.2424 18.1914L11.0824 24.4147ZM23.4219 24.4147H36.5729V17.4302C36.5729 17.4302 35.8118 14.031 30.9937 13.225C27.252 13.4344 25.2662 17.5797 25.2662 17.5797L23.4206 24.4147H23.4219ZM39.4258 24.4147H52.3444L50.4986 17.5797C50.4986 17.5797 48.5686 13.5539 44.9301 13.2386C40.1814 14.0664 39.4271 17.4302 39.4271 17.4302V24.4147H39.4258ZM55.246 24.4147H64.6824L61.5225 18.1914C61.5225 18.1914 59.9269 15.5287 57.1964 14.3001C56.688 14.0975 56.3062 13.9739 56.1431 13.9223C51.9053 14.75 54.3232 19.8658 54.3232 19.8658L54.069 20.9394L55.246 24.4147ZM66.8938 24.4147H70.9047L68.2787 19.3194C68.2787 19.3194 66.9549 16.1743 64.0885 14.9606C62.1247 16.2572 64.7029 19.3792 64.7029 19.3792L64.5126 19.9324L66.8938 24.4134V24.4147ZM72.3371 24.4147H73.7493L71.0799 19.4145C71.0799 19.4145 70.414 17.9507 68.7925 16.4869C69.0671 18.2035 71.5257 20.7383 71.5257 20.7383C70.8366 21.3173 71.2402 22.3991 71.2402 22.3991L72.3371 24.4147Z" fill="white"/>
</mask>
<g mask="url(#mask0_997_69766)">
<path d="M14.8046 14.2737C14.7679 14.3143 14.7175 14.3333 14.6687 14.3333C14.6212 14.3333 14.5721 14.3143 14.5354 14.275C14.4607 14.1974 14.4593 14.0697 14.5328 13.9909C14.5518 13.9705 16.4872 11.902 19.9244 9.37931C23.0952 7.05255 28.2342 3.8477 34.709 1.7954C34.8097 1.76414 34.9156 1.82394 34.9456 1.92996C34.9754 2.03596 34.9184 2.14878 34.8177 2.18003C22.519 6.07811 14.8794 14.1907 14.8033 14.2709L14.8046 14.2737ZM38.1871 14.1322C38.1871 14.2437 38.1015 14.3333 37.9968 14.3333C37.8907 14.3333 37.8065 14.2437 37.8065 14.1322V1.98977C37.8065 1.8783 37.8907 1.78861 37.9968 1.78861C38.1015 1.78861 38.1871 1.8783 38.1871 1.98977V14.1322ZM61.1727 14.2763C61.1429 14.3076 61.1047 14.3225 61.0654 14.3279C61.026 14.3225 60.9865 14.3063 60.9567 14.2737C60.8819 14.192 53.2423 6.08073 40.9421 2.18275C40.8414 2.15149 40.7844 2.03868 40.8144 1.93268C40.836 1.85521 40.8986 1.8022 40.9693 1.79132C40.9788 1.79268 40.9883 1.79404 40.9978 1.79812C47.4727 3.85042 52.6116 7.05518 55.7825 9.3821C59.2211 11.9046 61.155 13.9732 61.1741 13.9937C61.2475 14.0725 61.2462 14.2002 61.1714 14.2778L61.1727 14.2763ZM38.8612 1.90278C38.8898 1.84025 38.9442 1.80084 39.0039 1.79132C39.023 1.79404 39.0434 1.79948 39.0624 1.80899C43.9049 4.28397 47.1328 7.47518 48.9881 9.71506C51.0024 12.1466 51.8572 13.9678 51.8926 14.044C51.9388 14.1432 51.8993 14.2641 51.8055 14.313C51.788 14.3225 51.7703 14.3279 51.7513 14.3307C51.6901 14.3225 51.6329 14.2845 51.6044 14.222C51.5964 14.2043 50.7306 12.3626 48.7448 9.96785C46.9142 7.75929 43.7282 4.61425 38.9496 2.17188C38.8543 2.12295 38.815 2.00336 38.8612 1.90278ZM36.8117 2.17188C32.0329 4.61425 28.8471 7.75929 27.0164 9.96785C25.0307 12.3626 24.1662 14.203 24.1567 14.222C24.1241 14.2927 24.0562 14.3348 23.9856 14.3348C23.957 14.3348 23.9284 14.3279 23.9013 14.3143C23.8075 14.2655 23.768 14.1445 23.8143 14.0453C23.8497 13.9692 24.7044 12.1479 26.7187 9.71637C28.574 7.47518 31.8019 4.28533 36.6445 1.81035C36.7382 1.76142 36.8523 1.80357 36.8986 1.90414C36.9435 2.00472 36.9041 2.12431 36.8102 2.17324L36.8117 2.17188Z" fill="white"/>
</g>
<path fill-rule="evenodd" clip-rule="evenodd" d="M3.66007 24.4051L4.75689 22.3894C4.75689 22.3894 4.82357 22.2127 4.85603 21.9627H3.31757L2.01416 24.4051H3.66007ZM4.86291 21.4898C4.83029 21.2206 4.72427 20.9406 4.47282 20.7286C4.47282 20.7286 5.48538 19.6848 6.28458 18.4833H5.22439C4.85209 19.0351 4.68486 19.4048 4.68486 19.4048L3.57173 21.4898H4.86422H4.86291ZM6.58081 18.0104C6.94098 17.3974 7.20869 16.7749 7.23049 16.2516C6.51294 16.8605 5.96375 17.4817 5.56292 18.0104H6.58081ZM71.5257 20.7299C71.2729 20.942 71.1668 21.222 71.1342 21.4911H72.193L71.0799 19.4061C71.0799 19.4061 70.9127 19.0379 70.5402 18.4846H69.714C70.5117 19.6861 71.5243 20.7299 71.5243 20.7299H71.5257ZM71.1411 21.964C71.1737 22.2127 71.2402 22.3908 71.2402 22.3908L72.337 24.4064H73.7491L72.4458 21.964H71.1411ZM70.2019 18.0104C69.8499 17.5469 69.385 17.0128 68.7925 16.4772C68.8672 16.9502 69.1091 17.483 69.4176 18.0104H70.2019ZM63.9036 15.091C63.0188 15.8439 63.3504 17.0644 63.8275 18.0104H65.3892L63.9036 15.091ZM64.0898 18.4833C64.4052 19.0092 64.7028 19.3694 64.7028 19.3694L64.5126 19.9227L65.3442 21.4884H67.1602L65.6297 18.482H64.0885L64.0898 18.4833ZM65.5957 21.9627L66.8938 24.4051H68.6443L67.4007 21.9627H65.5957ZM69.154 24.4051H70.9045L69.646 21.9627H67.9117L69.1553 24.4051H69.154ZM69.4014 21.4898L68.2787 19.311C68.2787 19.311 68.1374 18.9768 67.8492 18.4846H66.1408L67.6712 21.4911H69.4027L69.4014 21.4898ZM67.553 18.0104C66.9305 17.0685 65.8975 15.837 64.4214 15.1059L65.8988 18.0104H67.553ZM55.9174 13.9629C53.5878 14.5337 53.4614 16.5031 53.7427 18.0104H57.3907L55.9161 13.9629H55.9174ZM53.8473 18.4833C54.0485 19.2797 54.3205 19.8561 54.3205 19.8561L54.0662 20.9297L54.2552 21.4898H58.6574L57.5633 18.4833H53.8473ZM54.4169 21.9627L55.2446 24.4051H59.7202L58.8313 21.9627H54.4183H54.4169ZM60.2042 24.4051H64.6796L63.4401 21.9627H59.3151L60.2042 24.4051ZM63.1996 21.4898L61.6734 18.4833H58.0471L59.1412 21.4898H63.1983H63.1996ZM61.4111 18.0104C61.0073 17.4028 59.5082 15.3315 57.1949 14.2905C56.8797 14.1654 56.612 14.0688 56.4162 14.0023L57.8759 18.009H61.4111V18.0104ZM39.423 17.4205V18.0104H45.1069L44.7018 13.2711C40.1542 14.1641 39.423 17.4205 39.423 17.4205ZM39.423 18.4833V21.4898H45.4044L45.1477 18.4833H39.423ZM39.423 21.9627V24.4051H45.6533L45.4439 21.9627H39.4215H39.423ZM46.1098 24.4051H52.3401L51.6809 21.9627H45.9005L46.1098 24.4051ZM51.5532 21.4898L50.7419 18.4833H45.6042L45.8611 21.4898H51.5532ZM50.614 18.0104L50.4958 17.57C50.4958 17.57 48.6459 13.7155 45.1572 13.2547L45.5634 18.0104H50.614ZM25.2649 17.57L25.1465 18.0104H30.3371L30.7625 13.2344C27.1703 13.5959 25.2649 17.57 25.2649 17.57ZM25.0175 18.4846L24.206 21.4911H30.026L30.2937 18.4846H25.0175ZM24.0783 21.964L23.4191 24.4064H29.7663L29.9838 21.964H24.0783ZM30.223 24.4064H36.5702V21.964H30.4404L30.223 24.4064ZM36.5702 21.4911V18.4846H30.7502L30.4825 21.4911H36.5702ZM36.5702 18.0117V17.4218C36.5702 17.4218 35.8334 14.1287 31.2165 13.2562L30.7924 18.0104H36.5702V18.0117ZM14.086 18.4846L12.5596 21.4911H16.7241L17.8072 18.4846H14.086ZM12.3191 21.964L11.0796 24.4064H15.6721L16.5528 21.964H12.3191ZM17.9785 18.0104L19.4341 13.9724C19.233 14.039 18.9327 14.145 18.5656 14.2905C16.2524 15.3315 14.7532 17.4028 14.3496 18.0104H17.9785ZM16.1574 24.4051H20.7497L21.5761 21.9627H17.0367L16.1559 24.4051H16.1574ZM21.7379 21.4898L21.9268 20.9297L21.6727 19.8561C21.6727 19.8561 21.9445 19.2797 22.1457 18.4833H18.2912L17.2079 21.4898H21.7365H21.7379ZM22.2517 18.0104C22.5398 16.4731 22.4025 14.4534 19.9343 13.9288L18.4623 18.0104H22.2502H22.2517ZM9.102 24.4051L10.4001 21.9627H8.47691L7.2359 24.4051H9.10347H9.102ZM10.6514 21.4898L11.4832 19.924L11.293 19.3709C11.293 19.3709 11.5906 19.0107 11.9073 18.4846H10.2451L8.7174 21.4911H10.6514V21.4898ZM12.1696 18.0104C12.663 17.0344 13.0014 15.7638 12.0065 15.0188L10.4856 18.0104H12.1683H12.1696ZM11.4901 15.0324C9.9325 15.7528 8.85052 17.0359 8.20772 18.0104H9.97595L11.4901 15.0324ZM7.9128 18.4833C7.6246 18.9753 7.48328 19.3097 7.48328 19.3097L6.36064 21.4884H8.20772L9.73545 18.482H7.9128V18.4833ZM6.11605 21.9627L4.8575 24.4051H6.72491L7.96723 21.9627H6.11736H6.11605Z" fill="#65FDF1"/>
<path d="M36.6099 30.7422H40.0302C41.2193 30.7422 42.0867 31.022 42.6323 31.5815C43.1778 32.1271 43.4506 32.9735 43.4506 34.1206V35.0229C43.4506 36.5477 42.947 37.513 41.9398 37.9187V37.9607C42.4994 38.1285 42.8911 38.4713 43.1149 38.9889C43.3527 39.5065 43.4716 40.199 43.4716 41.0663V43.6473C43.4716 44.067 43.4856 44.4097 43.5136 44.6755C43.5416 44.9273 43.6115 45.1791 43.7234 45.431H41.3732C41.2893 45.1931 41.2333 44.9693 41.2053 44.7595C41.1774 44.5496 41.1634 44.1719 41.1634 43.6263V40.9404C41.1634 40.2689 41.0515 39.8003 40.8276 39.5345C40.6178 39.2687 40.2471 39.1358 39.7155 39.1358H38.9181V45.431H36.6099V30.7422ZM39.7575 37.0374C40.2191 37.0374 40.5618 36.9185 40.7857 36.6806C41.0235 36.4428 41.1424 36.0441 41.1424 35.4846V34.3514C41.1424 33.8198 41.0445 33.4351 40.8486 33.1973C40.6668 32.9595 40.373 32.8406 39.9673 32.8406H38.9181V37.0374H39.7575Z" fill="#1E1E1E"/>
<path d="M31.5444 45.6417C30.4112 45.6417 29.5439 45.3199 28.9423 44.6764C28.3408 44.0329 28.04 43.1236 28.04 41.9485V34.2264C28.04 33.0513 28.3408 32.142 28.9423 31.4985C29.5439 30.855 30.4112 30.5332 31.5444 30.5332C32.6775 30.5332 33.5448 30.855 34.1464 31.4985C34.7479 32.142 35.0487 33.0513 35.0487 34.2264V41.9485C35.0487 43.1236 34.7479 44.0329 34.1464 44.6764C33.5448 45.3199 32.6775 45.6417 31.5444 45.6417ZM31.5444 43.5433C32.3418 43.5433 32.7404 43.0606 32.7404 42.0954V34.0795C32.7404 33.1142 32.3418 32.6316 31.5444 32.6316C30.747 32.6316 30.3483 33.1142 30.3483 34.0795V42.0954C30.3483 43.0606 30.747 43.5433 31.5444 43.5433Z" fill="#1E1E1E"/>
<path d="M20.1445 43.3745L24.4253 32.8406H20.3544V30.7422H26.9014V32.7986L22.6206 43.3326H26.9014V45.431H20.1445V43.3745Z" fill="#1E1E1E"/>
<path d="M15.5405 45.6417C14.4073 45.6417 13.54 45.3199 12.9384 44.6764C12.3369 44.0329 12.0361 43.1236 12.0361 41.9485V34.2264C12.0361 33.0513 12.3369 32.142 12.9384 31.4985C13.54 30.855 14.4073 30.5332 15.5405 30.5332C16.6736 30.5332 17.5409 30.855 18.1425 31.4985C18.744 32.142 19.0448 33.0513 19.0448 34.2264V41.9485C19.0448 43.1236 18.744 44.0329 18.1425 44.6764C17.5409 45.3199 16.6736 45.6417 15.5405 45.6417ZM15.5405 43.5433C16.3378 43.5433 16.7365 43.0606 16.7365 42.0954V34.0795C16.7365 33.1142 16.3378 32.6316 15.5405 32.6316C14.7431 32.6316 14.3444 33.1142 14.3444 34.0795V42.0954C14.3444 43.0606 14.7431 43.5433 15.5405 43.5433Z" fill="#1E1E1E"/>
<path d="M3.72021 30.7422H7.20355C8.39264 30.7422 9.25998 31.022 9.80556 31.5815C10.3511 32.1271 10.6239 32.9735 10.6239 34.1206V34.7082C10.6239 35.4636 10.498 36.0791 10.2462 36.5547C10.0084 37.0304 9.63769 37.3731 9.13407 37.583V37.6249C10.2812 38.0166 10.8548 39.0378 10.8548 40.6886V41.9476C10.8548 43.0808 10.554 43.9481 9.95245 44.5496C9.3649 45.1372 8.49756 45.431 7.35044 45.431H3.72021V30.7422ZM6.93076 36.7226C7.39241 36.7226 7.73514 36.6037 7.95897 36.3659C8.19679 36.1281 8.3157 35.7294 8.3157 35.1698V34.3514C8.3157 33.8198 8.21778 33.4351 8.02192 33.1973C7.84006 32.9595 7.54629 32.8406 7.1406 32.8406H6.02845V36.7226H6.93076ZM7.35044 43.3326C7.75613 43.3326 8.0569 43.2276 8.25275 43.0178C8.4486 42.794 8.54652 42.4163 8.54652 41.8847V40.6046C8.54652 39.9332 8.42761 39.4715 8.1898 39.2197C7.96597 38.9539 7.58826 38.821 7.05666 38.821H6.02845V43.3326H7.35044Z" fill="#1E1E1E"/>
<path d="M65.439 30.7422H68.8384C69.9855 30.7422 70.8458 31.05 71.4194 31.6655C71.993 32.281 72.2797 33.1833 72.2797 34.3724V35.8203C72.2797 37.0094 71.993 37.9117 71.4194 38.5272C70.8458 39.1428 69.9855 39.4505 68.8384 39.4505H67.7472V45.431H65.439V30.7422ZM68.8384 37.3521C69.2161 37.3521 69.4959 37.2472 69.6777 37.0374C69.8736 36.8275 69.9715 36.4708 69.9715 35.9672V34.2255C69.9715 33.7219 69.8736 33.3652 69.6777 33.1553C69.4959 32.9455 69.2161 32.8406 68.8384 32.8406H67.7472V37.3521H68.8384Z" fill="#06B2B6"/>
<path d="M57.3447 30.7422H60.7441C61.8913 30.7422 62.7516 31.05 63.3252 31.6655C63.8987 32.281 64.1855 33.1833 64.1855 34.3724V35.8203C64.1855 37.0094 63.8987 37.9117 63.3252 38.5272C62.7516 39.1428 61.8913 39.4505 60.7441 39.4505H59.653V45.431H57.3447V30.7422ZM60.7441 37.3521C61.1218 37.3521 61.4016 37.2472 61.5835 37.0374C61.7793 36.8275 61.8773 36.4708 61.8773 35.9672V34.2255C61.8773 33.7219 61.7793 33.3652 61.5835 33.1553C61.4016 32.9455 61.1218 32.8406 60.7441 32.8406H59.653V37.3521H60.7441Z" fill="#06B2B6"/>
<path d="M50.7061 30.7422H53.8327L56.2249 45.431H53.9167L53.497 42.5142V42.5562H50.874L50.4543 45.431H48.314L50.7061 30.7422ZM53.2242 40.5627L52.196 33.3022H52.154L51.1468 40.5627H53.2242Z" fill="#06B2B6"/>
</svg>
