<svg width="24" height="25" viewBox="0 0 24 25" fill="none" xmlns="http://www.w3.org/2000/svg">
<path d="M19.54 6.73922L16.47 3.66922C15.53 2.72922 14.26 2.19922 12.93 2.19922H8C5 2.19922 3 4.19922 3 7.19922V17.1992C3 20.1992 5 22.1992 8 22.1992H16C19 22.1992 21 20.1992 21 17.1992V10.2692C21 8.93922 20.47 7.66922 19.54 6.73922Z" stroke="#06B2B6" stroke-width="1.5" stroke-linecap="round" stroke-linejoin="round"/>
<path d="M10 18.6992H14C15.65 18.6992 17 17.3492 17 15.6992V12.6992C17 11.0492 15.65 9.69922 14 9.69922H10C8.35 9.69922 7 11.0492 7 12.6992V15.6992C7 17.3492 8.35 18.6992 10 18.6992Z" stroke="#06B2B6" stroke-width="1.5" stroke-linecap="round" stroke-linejoin="round"/>
<path d="M12 9.69922V18.6992" stroke="#06B2B6" stroke-width="1.5" stroke-linecap="round" stroke-linejoin="round"/>
<path d="M7.5 14.1992H16.5" stroke="#06B2B6" stroke-width="1.5" stroke-linecap="round" stroke-linejoin="round"/>
</svg>
